<?xml version="1.0" encoding="UTF-8" standalone="no"?>
<svg xmlns="http://www.w3.org/2000/svg"
     xmlns:svg="http://www.w3.org/2000/svg"
     version="1.1"
     width="0.963333in" height="1.04in"
     viewBox="0 0 289 312">
  <path id="path1"
        fill="none" stroke="black" stroke-width="1"
        d="M 98.00,25.00
           C 98.00,25.00 105.00,33.00 105.00,33.00
             105.00,33.00 105.00,25.00 105.00,25.00
             108.89,35.38 104.79,32.93 113.00,43.00
             113.00,37.74 112.28,32.68 115.00,28.00
             116.26,32.90 117.44,40.55 113.00,44.00
             113.00,44.00 117.00,51.00 117.00,51.00
             117.00,51.00 125.00,37.00 125.00,37.00
             124.02,43.24 121.20,48.32 117.00,53.00
             117.00,53.00 121.00,59.00 121.00,59.00
             121.00,59.00 129.00,41.00 129.00,41.00
             131.35,50.39 124.75,52.59 122.97,58.42
             121.75,62.41 124.15,66.65 126.00,70.00
             126.00,70.00 132.00,45.00 132.00,45.00
             132.00,45.00 134.00,45.00 134.00,45.00
             133.99,57.70 127.76,66.97 127.84,73.00
             127.90,77.19 130.66,81.69 133.00,85.00
             132.17,78.54 132.54,63.23 138.00,59.00
             137.84,66.28 136.34,70.27 135.29,77.00
             134.69,80.94 135.41,83.35 132.00,86.00
             132.00,86.00 135.00,93.00 135.00,93.00
             137.82,83.98 134.13,80.80 142.09,70.00
             143.10,73.87 143.53,78.11 142.09,82.00
             142.09,82.00 136.07,96.00 136.07,96.00
             135.81,98.50 137.14,101.68 138.00,104.00
             139.78,95.14 142.43,85.56 149.00,79.00
             146.19,93.95 145.30,89.29 140.91,100.99
             139.32,105.24 137.39,107.15 142.00,110.00
             143.07,96.96 145.58,98.64 150.60,89.00
             150.60,89.00 154.00,81.00 154.00,81.00
             157.06,87.48 159.77,93.91 165.00,99.00
             165.00,99.00 166.55,91.00 166.55,91.00
             166.55,91.00 159.00,77.00 159.00,77.00
             163.64,79.67 165.88,84.25 168.00,89.00
             168.00,89.00 171.57,83.58 171.57,83.58
             171.57,83.58 168.00,66.00 168.00,66.00
             170.95,71.69 172.46,75.57 173.00,82.00
             178.27,75.54 176.00,69.54 174.00,62.00
             179.73,65.82 176.12,72.27 179.31,76.56
             181.38,79.34 188.79,78.99 192.00,79.00
             192.00,79.00 192.00,81.00 192.00,81.00
             184.05,80.93 181.58,78.36 175.00,83.00
             181.95,84.31 190.09,85.54 195.00,91.00
             195.00,91.00 173.00,85.00 173.00,85.00
             173.00,85.00 171.00,90.00 171.00,90.00
             176.69,91.35 187.32,95.56 191.00,100.00
             177.47,95.78 181.38,99.54 169.00,91.00
             168.37,92.83 166.62,97.02 166.97,98.79
             167.52,101.53 171.67,102.94 174.00,103.76
             180.91,106.19 185.87,104.93 192.00,111.00
             187.68,110.32 180.84,109.45 178.00,106.00
             173.71,106.80 171.53,106.88 169.00,103.00
             169.00,103.00 167.00,104.00 167.00,104.00
             167.00,104.00 164.00,101.00 164.00,101.00
             164.00,101.00 161.00,111.00 161.00,111.00
             171.12,111.09 174.67,112.52 183.00,118.00
             183.00,118.00 183.00,115.00 183.00,115.00
             183.00,115.00 187.00,121.00 187.00,121.00
             187.00,121.00 186.00,132.00 186.00,132.00
             183.81,127.08 182.22,126.71 183.00,121.00
             183.00,121.00 161.00,112.00 161.00,112.00
             161.00,112.00 158.00,122.00 158.00,122.00
             165.61,122.02 168.18,122.27 175.00,126.00
             175.00,126.00 176.00,122.00 176.00,122.00
             176.00,122.00 174.00,120.00 174.00,120.00
             174.00,120.00 178.50,127.39 178.50,127.39
             178.50,127.39 183.00,132.00 183.00,132.00
             183.00,132.00 178.00,130.00 178.00,130.00
             178.00,130.00 181.00,139.00 181.00,139.00
             181.00,139.00 186.00,137.00 186.00,137.00
             187.33,130.06 194.75,128.22 196.54,123.56
             197.96,119.87 194.23,117.87 198.00,112.00
             198.00,112.00 198.00,123.00 198.00,123.00
             206.48,116.73 203.63,112.32 215.00,109.00
             215.00,109.00 205.00,119.00 205.00,119.00
             205.00,119.00 219.00,121.00 219.00,121.00
             219.00,121.00 202.00,123.00 202.00,123.00
             207.40,124.02 214.46,125.90 219.00,129.00
             206.52,128.42 204.03,121.99 196.00,128.00
             201.60,128.02 210.33,128.21 214.00,133.00
             203.01,132.01 199.04,125.56 189.00,134.00
             195.93,134.00 207.18,135.21 213.00,139.00
             196.66,138.95 195.84,131.00 184.00,139.00
             189.44,139.02 200.46,140.68 204.00,145.00
             204.00,145.00 185.00,141.40 185.00,141.40
             185.00,141.40 180.00,144.00 180.00,144.00
             180.00,144.00 198.00,149.08 198.00,149.08
             198.00,149.08 207.00,151.00 207.00,151.00
             196.35,152.88 187.98,148.33 178.00,145.00
             178.00,145.00 174.00,151.00 174.00,151.00
             186.74,151.00 183.49,151.32 195.00,154.24
             199.33,155.34 201.00,154.41 205.00,157.12
             205.00,157.12 195.00,157.12 195.00,157.12
             195.00,157.12 173.00,152.00 173.00,152.00
             173.00,152.00 171.00,157.00 171.00,157.00
             171.00,157.00 192.00,160.63 192.00,160.63
             192.00,160.63 201.00,161.82 201.00,161.82
             195.51,163.56 189.44,163.39 184.00,161.82
             180.54,160.53 174.57,157.41 171.10,158.64
             167.81,159.80 166.28,164.05 165.00,167.00
             184.83,165.83 186.29,172.42 200.00,170.00
             196.50,174.24 189.68,172.77 185.00,171.39
             180.19,169.97 169.88,167.67 165.18,169.60
             163.28,170.37 162.37,171.60 161.00,173.00
             178.30,173.01 175.14,178.83 190.00,177.00
             187.86,179.38 186.20,179.06 183.09,178.93
             173.55,178.55 173.27,175.01 159.00,175.00
             157.72,170.88 153.66,169.76 150.00,168.00
             150.00,168.00 156.00,176.00 156.00,176.00
             156.00,176.00 150.00,174.00 150.00,174.00
             150.00,174.00 149.00,177.00 149.00,177.00
             149.00,177.00 157.00,181.00 157.00,181.00
             157.00,181.00 160.00,176.00 160.00,176.00
             160.00,176.00 158.00,180.00 158.00,180.00
             172.64,178.07 168.01,179.02 181.00,182.39
             181.00,182.39 188.00,184.00 188.00,184.00
             178.02,186.31 167.21,181.22 157.00,181.00
             157.00,181.00 157.00,184.00 157.00,184.00
             157.00,184.00 177.00,187.84 177.00,187.84
             177.00,187.84 167.00,187.84 167.00,187.84
             161.70,186.79 160.30,184.38 155.00,187.00
             155.00,187.00 154.00,186.00 154.00,186.00
             154.72,182.77 152.39,181.75 150.00,180.00
             150.38,184.73 150.69,185.78 155.00,188.00
             155.00,188.00 154.00,191.00 154.00,191.00
             159.77,191.00 165.64,190.53 171.00,193.00
             171.00,193.00 153.00,193.00 153.00,193.00
             153.00,193.00 149.00,206.00 149.00,206.00
             149.00,206.00 171.00,204.00 171.00,204.00
             171.00,204.00 172.09,218.00 172.09,218.00
             172.09,218.00 172.09,234.00 172.09,234.00
             172.01,239.43 173.99,250.66 172.09,254.96
             172.09,254.96 165.04,264.42 165.04,264.42
             162.54,267.04 154.51,266.99 151.00,267.00
             142.97,267.01 134.96,266.81 127.00,265.71
             121.66,264.97 118.57,263.95 119.00,258.00
             113.48,254.89 114.01,247.70 114.00,242.00
             114.00,242.00 113.00,204.00 113.00,204.00
             113.00,204.00 133.00,206.00 133.00,206.00
             133.00,206.00 126.70,195.02 126.70,195.02
             126.70,195.02 108.00,193.00 108.00,193.00
             115.54,190.49 119.31,188.44 127.00,192.00
             127.00,192.00 122.00,179.00 122.00,179.00
             122.00,179.00 107.00,185.32 107.00,185.32
             107.00,185.32 98.00,190.00 98.00,190.00
             102.78,183.49 112.54,176.36 121.00,178.00
             121.00,178.00 117.00,168.00 117.00,168.00
             117.00,168.00 93.00,182.00 93.00,182.00
             97.25,173.02 106.32,167.88 116.00,167.00
             116.00,167.00 113.00,159.00 113.00,159.00
             113.00,159.00 110.00,159.00 110.00,159.00
             105.67,166.74 94.57,168.79 87.00,172.00
             89.87,166.28 95.25,164.32 101.00,162.18
             103.47,161.25 108.67,159.46 109.31,156.53
             109.67,154.89 107.73,151.55 107.00,150.00
             93.81,159.68 100.37,154.94 87.00,160.00
             89.89,155.46 99.02,150.23 104.00,148.00
             104.00,148.00 102.00,144.00 102.00,144.00
             102.00,144.00 82.00,152.00 82.00,152.00
             85.09,146.86 93.20,143.62 99.00,143.00
             93.31,136.22 88.45,144.02 81.00,142.00
             81.00,142.00 94.00,137.00 94.00,137.00
             94.00,137.00 81.00,136.00 81.00,136.00
             81.00,136.00 85.00,133.00 85.00,133.00
             85.00,133.00 76.00,132.00 76.00,132.00
             76.00,132.00 76.00,130.00 76.00,130.00
             76.00,130.00 81.00,129.00 81.00,129.00
             81.00,129.00 72.00,122.00 72.00,122.00
             72.00,122.00 89.00,133.00 89.00,133.00
             89.00,133.00 85.00,123.00 85.00,123.00
             89.69,126.78 90.47,129.13 91.00,135.00
             91.00,135.00 95.00,136.00 95.00,136.00
             95.00,136.00 93.00,130.00 93.00,130.00
             93.00,130.00 96.00,124.00 96.00,124.00
             96.00,124.00 92.00,121.00 92.00,121.00
             103.82,124.14 112.04,124.79 123.00,131.00
             117.63,117.86 105.64,121.84 96.00,118.00
             107.55,116.37 108.30,113.84 119.00,122.00
             117.60,119.40 116.25,116.62 113.79,114.84
             106.47,109.54 96.26,114.21 88.00,110.00
             96.66,110.00 105.78,108.92 114.00,112.00
             114.00,112.00 109.00,105.00 109.00,105.00
             104.25,106.35 93.56,107.81 89.00,106.00
             97.42,104.71 98.79,102.76 108.00,105.00
             104.91,101.92 100.43,96.66 96.00,95.97
             91.01,95.12 87.40,98.07 82.00,95.97
             82.00,95.97 96.00,93.00 96.00,93.00
             96.00,93.00 77.00,91.00 77.00,91.00
             77.00,91.00 86.00,88.00 86.00,88.00
             79.99,85.43 77.84,82.76 75.00,77.00
             75.00,77.00 89.00,88.00 89.00,88.00
             86.92,83.88 84.68,79.68 86.00,75.00
             89.87,81.99 88.99,87.53 96.00,92.00
             96.00,92.00 94.00,80.00 94.00,80.00
             94.00,80.00 101.00,95.00 101.00,95.00
             99.17,89.45 98.47,85.48 101.00,80.00
             101.00,80.00 103.37,96.44 103.37,96.44
             103.37,96.44 110.00,104.00 110.00,104.00
             110.00,104.00 112.69,89.09 112.69,89.09
             112.69,89.09 114.00,83.00 114.00,83.00
             114.00,83.00 133.00,94.00 133.00,94.00
             133.00,94.00 130.00,85.00 130.00,85.00
             130.00,85.00 120.00,82.56 120.00,82.56
             120.00,82.56 109.00,81.00 109.00,81.00
             109.77,86.88 110.35,94.83 107.00,100.00
             105.56,94.91 106.55,85.11 108.00,80.00
             103.39,78.65 101.30,77.52 98.00,74.00
             98.00,74.00 107.00,76.54 107.00,76.54
             107.00,76.54 121.00,79.00 121.00,79.00
             121.00,79.00 129.00,84.00 129.00,84.00
             125.86,75.41 112.34,71.39 104.00,70.29
             99.34,69.67 97.35,70.53 93.00,68.00
             93.00,68.00 117.00,70.15 117.00,70.15
             117.00,70.15 127.00,77.00 127.00,77.00
             127.00,77.00 122.00,64.00 122.00,64.00
             114.06,66.29 109.52,64.27 102.00,63.29
             98.57,62.84 96.33,63.32 93.00,62.00
             102.18,59.39 111.64,62.97 121.00,63.00
             121.00,63.00 116.00,53.00 116.00,53.00
             116.00,53.00 92.00,47.00 92.00,47.00
             104.54,45.99 103.40,47.08 115.00,52.00
             108.61,40.46 101.65,47.27 94.00,40.00
             94.00,40.00 110.00,44.00 110.00,44.00
             110.00,44.00 107.00,37.00 107.00,37.00
             100.93,37.57 99.10,34.75 96.00,30.00
             96.00,30.00 102.00,35.00 102.00,35.00
             102.00,35.00 98.00,25.00 98.00,25.00 Z
           M 104.00,35.00
           C 104.00,35.00 103.00,35.00 103.00,35.00
             103.00,35.00 104.00,36.00 104.00,36.00
             104.00,36.00 104.00,35.00 104.00,35.00 Z
           M 95.00,54.00
           C 95.00,54.00 117.00,57.00 117.00,57.00
             117.00,57.00 117.00,59.00 117.00,59.00
             110.37,58.70 100.88,57.07 95.00,54.00 Z
           M 199.00,58.00
           C 199.00,58.00 201.00,59.00 201.00,59.00
             201.00,59.00 192.00,69.00 192.00,69.00
             192.00,69.00 198.00,69.00 198.00,69.00
             198.00,69.00 187.00,73.00 187.00,73.00
             187.00,73.00 194.00,75.00 194.00,75.00
             187.35,75.00 186.40,74.60 180.00,77.00
             180.00,77.00 182.47,71.83 182.47,71.83
             182.47,71.83 187.00,61.00 187.00,61.00
             187.68,65.79 186.69,67.61 185.00,72.00
             185.00,72.00 199.00,58.00 199.00,58.00 Z
           M 116.00,87.00
           C 116.00,87.00 111.00,107.00 111.00,107.00
             111.00,107.00 116.00,111.00 116.00,111.00
             116.00,111.00 118.34,90.30 118.34,90.30
             118.34,90.30 116.00,87.00 116.00,87.00 Z
           M 155.00,87.00
           C 151.24,91.91 152.71,97.69 155.00,103.00
             156.18,91.52 157.26,99.76 155.00,87.00 Z
           M 121.00,92.00
           C 121.00,92.00 121.00,98.00 121.00,98.00
             121.00,98.00 127.00,97.00 127.00,97.00
             127.00,97.00 126.00,97.00 126.00,97.00
             126.00,97.00 126.00,99.00 126.00,99.00
             126.00,99.00 137.00,108.00 137.00,108.00
             136.45,104.93 134.90,98.01 132.52,96.01
             130.78,94.54 123.88,93.08 121.00,92.00 Z
           M 102.00,95.00
           C 102.00,95.00 101.00,95.00 101.00,95.00
             101.00,95.00 102.00,96.00 102.00,96.00
             102.00,96.00 102.00,95.00 102.00,95.00 Z
           M 151.00,97.00
           C 147.83,101.18 146.69,102.77 148.00,108.00
             151.61,103.77 152.87,102.44 151.00,97.00 Z
           M 160.00,97.00
           C 157.17,100.45 156.52,101.49 157.00,106.00
             157.00,106.00 158.00,106.00 158.00,106.00
             158.00,106.00 160.00,104.00 160.00,104.00
             160.00,104.00 159.00,109.00 159.00,109.00
             163.63,105.46 163.00,101.38 160.00,97.00 Z
           M 121.00,99.00
           C 121.00,99.00 116.00,114.00 116.00,114.00
             116.00,114.00 120.00,119.00 120.00,119.00
             120.00,119.00 125.00,101.00 125.00,101.00
             125.00,101.00 121.00,99.00 121.00,99.00 Z
           M 82.00,101.00
           C 88.14,99.62 96.46,96.92 102.00,101.00
             102.00,101.00 82.00,101.00 82.00,101.00 Z
           M 168.00,102.00
           C 168.00,102.00 167.00,102.00 167.00,102.00
             167.00,102.00 168.00,103.00 168.00,103.00
             168.00,103.00 168.00,102.00 168.00,102.00 Z
           M 127.00,103.00
           C 127.00,103.00 121.00,123.00 121.00,123.00
             121.00,123.00 125.00,130.00 125.00,130.00
             125.00,130.00 131.00,106.00 131.00,106.00
             131.00,106.00 127.00,103.00 127.00,103.00 Z
           M 154.00,103.00
           C 154.00,103.00 153.00,103.00 153.00,103.00
             153.00,103.00 154.00,104.00 154.00,104.00
             154.00,104.00 154.00,103.00 154.00,103.00 Z
           M 111.00,104.00
           C 111.00,104.00 110.00,104.00 110.00,104.00
             110.00,104.00 111.00,105.00 111.00,105.00
             111.00,105.00 111.00,104.00 111.00,104.00 Z
           M 155.00,105.00
           C 150.59,108.36 147.67,111.10 152.00,116.00
             152.00,116.00 157.00,108.00 157.00,108.00
             157.00,108.00 155.00,106.00 155.00,106.00
             155.00,106.00 155.00,105.00 155.00,105.00 Z
           M 146.00,106.00
           C 146.00,106.00 143.00,114.00 143.00,114.00
             143.00,114.00 141.00,113.00 141.00,113.00
             141.00,113.00 143.00,124.00 143.00,124.00
             143.00,124.00 146.00,106.00 146.00,106.00 Z
           M 133.00,108.00
           C 131.79,111.04 132.01,113.83 131.25,117.00
             129.13,125.86 124.48,132.63 129.00,141.00
             129.84,123.90 141.04,126.05 138.00,109.00
             138.00,109.00 133.00,108.00 133.00,108.00 Z
           M 159.00,111.00
           C 159.00,111.00 153.00,117.00 153.00,117.00
             153.00,117.00 156.00,122.00 156.00,122.00
             156.00,122.00 159.00,111.00 159.00,111.00 Z
           M 148.00,114.00
           C 144.56,117.74 144.15,122.33 146.00,127.00
             148.46,121.27 150.26,120.15 148.00,114.00 Z
           M 208.00,117.00
           C 211.82,115.57 217.01,112.99 221.00,114.00
             216.89,116.24 212.74,118.00 208.00,117.00 Z
           M 189.00,114.00
           C 191.81,116.52 192.26,123.55 191.00,127.00
             191.00,127.00 189.00,114.00 189.00,114.00 Z
           M 152.00,118.00
           C 152.00,118.00 151.00,118.00 151.00,118.00
             151.00,118.00 152.00,119.00 152.00,119.00
             152.00,119.00 152.00,118.00 152.00,118.00 Z
           M 152.00,120.00
           C 147.52,124.98 145.83,129.77 149.00,136.00
             149.00,136.00 155.00,123.00 155.00,123.00
             155.00,123.00 152.00,120.00 152.00,120.00 Z
           M 141.00,124.00
           C 141.00,124.00 139.00,124.00 139.00,124.00
             139.00,124.00 130.01,143.00 130.01,143.00
             130.01,143.00 132.00,151.00 132.00,151.00
             134.23,136.80 143.62,134.13 141.00,124.00 Z
           M 168.00,136.00
           C 166.79,128.16 165.05,125.62 157.00,124.00
             156.41,134.57 152.29,133.29 150.00,141.00
             153.27,138.78 155.13,137.99 156.00,134.00
             156.00,134.00 168.00,136.00 168.00,136.00 Z
           M 98.00,125.00
           C 96.41,129.11 97.33,131.63 101.00,134.00
             101.00,134.00 100.00,132.00 100.00,132.00
             100.00,132.00 103.00,128.00 103.00,128.00
             103.00,128.00 98.00,125.00 98.00,125.00 Z
           M 169.00,127.00
           C 168.46,130.98 175.15,150.12 181.00,139.00
             181.00,139.00 175.16,129.85 175.16,129.85
             175.16,129.85 169.00,127.00 169.00,127.00 Z
           M 106.00,128.00
           C 106.00,128.00 104.00,134.00 104.00,134.00
             118.73,138.74 111.99,133.43 128.00,144.00
             125.36,129.40 118.23,132.47 106.00,128.00 Z
           M 98.00,133.00
           C 98.00,133.00 97.00,133.00 97.00,133.00
             97.00,133.00 98.00,134.00 98.00,134.00
             98.00,134.00 98.00,133.00 98.00,133.00 Z
           M 143.00,133.00
           C 143.00,133.00 138.68,142.00 138.68,142.00
             134.84,149.95 131.50,149.44 133.10,158.71
             133.61,161.71 133.46,162.25 136.00,164.00
             136.00,164.00 144.45,147.00 144.45,147.00
             144.45,147.00 143.00,133.00 143.00,133.00 Z
           M 99.00,134.00
           C 97.03,139.65 102.90,143.96 107.00,147.00
             107.00,147.00 109.00,140.00 109.00,140.00
             109.00,140.00 101.00,138.00 101.00,138.00
             101.00,138.00 99.00,134.00 99.00,134.00 Z
           M 187.00,135.00
           C 187.00,135.00 186.00,135.00 186.00,135.00
             186.00,135.00 187.00,136.00 187.00,136.00
             187.00,136.00 187.00,135.00 187.00,135.00 Z
           M 177.00,145.00
           C 172.11,141.52 171.19,138.89 165.00,139.00
             165.00,139.00 170.00,148.00 170.00,148.00
             170.00,148.00 174.00,150.00 174.00,150.00
             174.00,150.00 177.00,145.00 177.00,145.00 Z
           M 169.00,157.00
           C 169.88,155.50 171.07,153.89 171.19,152.09
             171.39,149.16 164.38,141.33 161.83,140.10
             160.04,139.39 157.88,139.82 156.00,140.10
             156.00,140.10 169.00,157.00 169.00,157.00 Z
           M 147.00,140.00
           C 147.00,140.00 147.00,153.00 147.00,153.00
             160.16,157.22 156.32,156.46 164.00,165.00
             164.00,165.00 168.00,157.00 168.00,157.00
             161.67,152.59 157.23,148.60 155.00,141.00
             150.68,143.57 151.36,147.84 149.00,152.00
             150.11,145.76 150.60,145.34 147.00,140.00 Z
           M 117.00,144.00
           C 117.00,144.00 111.00,142.00 111.00,142.00
             111.00,142.00 109.00,147.00 109.00,147.00
             113.36,148.01 115.36,148.69 117.00,144.00 Z
           M 129.00,146.00
           C 123.97,145.64 121.33,143.21 119.00,149.00
             119.00,149.00 125.00,147.00 125.00,147.00
             125.00,147.00 129.84,156.00 129.84,156.00
             129.84,156.00 133.00,165.00 133.00,165.00
             133.00,165.00 129.00,146.00 129.00,146.00 Z
           M 109.00,148.00
           C 108.80,151.64 110.63,153.44 113.00,156.00
             113.00,156.00 115.00,151.00 115.00,151.00
             115.00,151.00 109.00,148.00 109.00,148.00 Z
           M 122.00,152.00
           C 120.29,152.14 118.86,152.08 117.31,153.02
             110.71,157.02 116.28,165.73 120.08,158.87
             120.08,158.87 121.21,156.00 121.21,156.00
             121.21,156.00 122.00,152.00 122.00,152.00 Z
           M 146.00,152.00
           C 141.90,157.11 133.28,166.20 137.00,173.00
             137.00,173.00 142.00,165.00 142.00,165.00
             142.00,165.00 142.00,169.00 142.00,169.00
             138.50,171.25 137.60,174.29 136.00,178.00
             136.00,178.00 140.00,178.00 140.00,178.00
             142.53,172.91 143.17,171.48 149.00,171.00
             149.00,171.00 146.00,152.00 146.00,152.00 Z
           M 125.00,153.00
           C 125.00,153.00 122.00,162.00 122.00,162.00
             122.00,162.00 129.00,162.00 129.00,162.00
             128.83,157.11 128.81,156.26 125.00,153.00 Z
           M 149.00,155.00
           C 145.93,163.39 154.52,168.10 161.00,171.00
             161.00,171.00 163.00,166.00 163.00,166.00
             163.00,166.00 149.00,155.00 149.00,155.00 Z
           M 128.00,167.00
           C 128.00,167.00 120.00,166.00 120.00,166.00
             119.16,170.72 120.76,173.88 123.00,178.00
             123.00,178.00 128.00,167.00 128.00,167.00 Z
           M 150.00,167.00
           C 150.00,167.00 149.00,167.00 149.00,167.00
             149.00,167.00 150.00,168.00 150.00,168.00
             150.00,168.00 150.00,167.00 150.00,167.00 Z
           M 135.00,174.00
           C 133.68,170.26 133.51,169.87 130.00,168.00
             130.00,168.00 127.00,174.00 127.00,174.00
             127.00,174.00 134.00,178.00 134.00,178.00
             134.00,178.00 133.00,173.00 133.00,173.00
             133.00,173.00 135.00,174.00 135.00,174.00 Z
           M 149.00,173.00
           C 149.00,173.00 143.00,173.00 143.00,173.00
             141.16,182.04 136.87,186.39 139.00,192.00
             139.00,192.00 143.00,187.00 143.00,187.00
             143.00,187.00 138.87,195.00 138.87,195.00
             138.87,195.00 137.00,205.00 137.00,205.00
             137.00,205.00 136.00,186.00 136.00,186.00
             136.00,186.00 131.90,196.00 131.90,196.00
             129.96,203.38 134.67,205.99 141.00,206.00
             142.51,206.00 145.25,206.08 146.58,205.43
             149.23,204.14 150.63,197.77 151.25,195.00
             152.14,190.95 151.84,189.89 149.00,187.00
             148.53,192.80 148.11,199.60 144.00,204.00
             144.00,204.00 149.00,186.00 149.00,186.00
             149.00,186.00 145.00,182.00 145.00,182.00
             145.00,182.00 148.00,183.00 148.00,183.00
             148.00,183.00 145.00,176.00 145.00,176.00
             145.00,176.00 149.00,176.00 149.00,176.00
             149.00,176.00 149.00,173.00 149.00,173.00 Z
           M 127.00,175.00
           C 125.85,176.39 125.01,177.16 124.60,179.04
             123.68,183.25 127.55,191.68 131.00,194.00
             131.00,194.00 132.67,182.17 132.67,182.17
             132.67,182.17 127.00,175.00 127.00,175.00 Z
           M 138.00,182.00
           C 138.00,182.00 137.00,182.00 137.00,182.00
             137.00,182.00 138.00,183.00 138.00,183.00
             138.00,183.00 138.00,182.00 138.00,182.00 Z
           M 147.00,183.00
           C 147.00,183.00 146.00,183.00 146.00,183.00
             146.00,183.00 147.00,184.00 147.00,184.00
             147.00,184.00 147.00,183.00 147.00,183.00 Z
           M 116.00,205.00
           C 113.19,212.09 115.99,232.52 116.00,241.00
             116.01,245.29 115.40,249.97 117.00,254.00
             117.00,254.00 117.00,223.00 117.00,223.00
             117.00,223.00 116.00,205.00 116.00,205.00 Z
           M 122.00,206.00
           C 122.00,206.00 118.00,206.00 118.00,206.00
             118.00,206.00 119.00,228.00 119.00,228.00
             119.00,228.00 119.00,250.00 119.00,250.00
             119.04,257.36 119.50,257.39 128.00,259.00
             128.00,259.00 127.00,239.00 127.00,239.00
             127.00,239.00 127.00,208.00 127.00,208.00
             127.00,208.00 129.00,208.00 129.00,208.00
             129.00,208.00 129.00,259.00 129.00,259.00
             129.00,259.00 134.00,259.00 134.00,259.00
             134.00,259.00 134.00,207.00 134.00,207.00
             134.00,207.00 123.00,207.00 123.00,207.00
             123.00,207.00 124.00,226.00 124.00,226.00
             124.00,226.00 124.00,257.00 124.00,257.00
             124.00,257.00 122.00,257.00 122.00,257.00
             122.00,257.00 122.00,206.00 122.00,206.00 Z
           M 162.00,206.00
           C 157.13,207.96 158.01,210.19 158.11,215.00
             158.11,215.00 158.11,226.00 158.11,226.00
             158.11,226.00 158.11,248.00 158.11,248.00
             158.11,248.00 158.11,259.00 158.11,259.00
             162.55,257.41 161.97,255.46 162.00,251.00
             162.00,251.00 162.00,206.00 162.00,206.00 Z
           M 167.00,206.00
           C 167.00,206.00 163.00,206.00 163.00,206.00
             163.00,206.00 164.00,221.00 164.00,221.00
             164.00,221.00 164.00,246.00 164.00,246.00
             164.00,246.00 163.00,259.00 163.00,259.00
             163.00,259.00 167.00,258.00 167.00,258.00
             167.00,258.00 167.00,206.00 167.00,206.00 Z
           M 169.00,206.00
           C 169.00,206.00 169.00,217.00 169.00,217.00
             169.00,217.00 169.00,240.00 169.00,240.00
             169.00,240.00 170.00,257.00 170.00,257.00
             172.72,247.42 170.02,233.97 170.00,224.00
             169.99,219.03 170.73,210.36 169.00,206.00 Z
           M 136.00,207.00
           C 136.00,207.00 136.00,224.00 136.00,224.00
             136.00,224.00 136.00,259.00 136.00,259.00
             136.00,259.00 142.00,259.00 142.00,259.00
             142.00,259.00 142.00,208.00 142.00,208.00
             142.00,208.00 136.00,207.00 136.00,207.00 Z
           M 156.00,207.00
           C 156.00,207.00 143.00,208.00 143.00,208.00
             143.00,208.00 143.00,238.00 143.00,238.00
             143.00,238.00 143.00,259.00 143.00,259.00
             143.00,259.00 152.00,259.00 152.00,259.00
             152.00,259.00 151.00,239.00 151.00,239.00
             151.00,239.00 151.00,208.00 151.00,208.00
             151.00,208.00 153.00,208.00 153.00,208.00
             153.00,208.00 153.00,259.00 153.00,259.00
             153.00,259.00 157.00,259.00 157.00,259.00
             157.00,259.00 156.00,241.00 156.00,241.00
             156.00,241.00 156.91,229.00 156.91,229.00
             156.91,229.00 156.00,207.00 156.00,207.00 Z
           M 118.00,255.00
           C 118.00,255.00 117.00,255.00 117.00,255.00
             117.00,255.00 118.00,256.00 118.00,256.00
             118.00,256.00 118.00,255.00 118.00,255.00 Z
           M 164.00,260.00
           C 144.35,260.00 141.52,262.92 120.00,259.00
             121.87,264.47 124.98,263.63 130.00,264.16
             130.00,264.16 157.00,265.00 157.00,265.00
             161.80,264.91 163.13,264.93 164.00,260.00 Z" />
</svg>
